<svg xmlns="http://www.w3.org/2000/svg" viewBox="0 0 3911.02 1005.27">
    <g id="Layer_2">
        <g id="Layer_1-2">
            <path d="M1280.73,431.76V406.47h262.83v25.29c-32.86,4.22-52.57,11.81-37,54.81l126.48,360h1.65L1739,494.16c14.78-50.59-6.57-54-84.6-62.4V406.47h197.12v25.29c-45.17,8.44-58.31,11.81-68.17,46.38l-156.06,522.77H1523l-195.47-531.2C1316.87,441.88,1309.48,440.2,1280.73,431.76Z"
                  style="fill:#262c2d"/>
            <path d="M2414.79,973.92v22.77h-242.3V973.92c37-4.21,41.07-8.43,41.07-29.51V463c0-29.51-4.11-33.73-41.07-37.94V402.25l187.27-21.08h14V944.41C2373.72,965.49,2377.83,969.71,2414.79,973.92Z"
                  style="fill:#262c2d"/>
            <path d="M2683,973.92v22.77h-242.3V973.92c37-4.21,41.07-8.43,41.07-29.51v-285c0-29.51-4.11-33.73-41.07-37.94V598.71l187.27-32h14V944.41C2642,965.49,2646.07,969.71,2683,973.92Z"
                  style="fill:#262c2d"/>
            <path d="M2558.18,376.83c49.28,0,87.89,27.73,87.89,83.2s-38.61,81.35-87.89,81.35-88.7-25.89-88.7-81.35S2508.9,376.83,2558.18,376.83Z"
                  style="fill:#262c2d"/>
            <path d="M3104.58,939.44c-4.08,1.6-9.5,3.87-13.88,3.87-10.67,0-18.52-6.22-19-16.78l0-229.17c4.17-71.67-59.07-130.69-165.85-130.69-123.2,0-193,92.75-193,143.34,0,33.73,27.92,46.38,57.49,46.38,33.68,0,57.5-16.87,57.5-37.95,0-25.29-31.21-32.88-31.21-60.71,0-24.45,22.17-44.68,50.92-44.68,49.28,0,66.53,40.47,66.53,77.57V769c-172.49,8.44-213.55,82.63-213.55,134.91,0,57.34,37,101.18,98.56,101.18,49.28,0,90.35-25.29,113.34-67.45h1.65v8.43c0,32,25.46,59.24,76.38,59,54.44-.23,105.27-31,120.44-57.15,1.17-2.18,4.66-7.3,1.94-9.56S3105.59,939.05,3104.58,939.44Zm-190.46-28.6c-7.42,4.61-16.07,7.37-28.43,7.37-28.43,0-47-15.67-47-48.85,0-47,38.32-67.28,75.4-71.89Z"
                  style="fill:#262c2d"/>
            <path d="M2163.22,939.44c-4.08,1.6-9.5,3.87-13.87,3.87-10.68,0-18.53-6.22-19-16.78l0-229.17c4.17-71.67-59.07-130.69-165.85-130.69-123.2,0-193,92.75-193,143.34,0,33.73,27.92,46.38,57.49,46.38,33.68,0,57.5-16.87,57.5-37.95,0-25.29-31.21-32.88-31.21-60.71,0-24.45,22.17-44.68,50.92-44.68,49.28,0,66.53,40.47,66.53,77.57V769c-172.48,8.44-213.55,82.63-213.55,134.91,0,57.34,37,101.18,98.56,101.18,49.28,0,90.35-25.29,113.34-67.45h1.65v8.43c0,32,25.46,59.24,76.38,59,54.44-.23,105.27-31,120.44-57.15,1.18-2.18,4.66-7.3,1.94-9.56S2164.23,939.05,2163.22,939.44Zm-190.46-28.6c-7.42,4.61-16.07,7.37-28.43,7.37-28.43,0-47-15.67-47-48.85,0-47,38.32-67.28,75.4-71.89Z"
                  style="fill:#262c2d"/>
            <path d="M3153.69,944.41v-285c0-29.51-4.11-33.73-41.07-37.94V598.71l187.27-32h14l-4.11,88.53h4.11c37-50.59,83.78-88.53,143.74-88.53,61.6,0,115,33.73,115,126.48V944.41c0,21.08,4.11,25.3,41.07,29.51v22.77H3379.56V973.92c28.74-4.21,32.85-8.43,32.85-29.51V704.11c0-32-13.14-48.91-38.6-48.91-29.57,0-46.82,16.87-60,27.83V944.41c0,21.08,4.11,25.3,41.07,29.51v22.77h-242.3V973.92C3149.58,969.71,3153.69,965.49,3153.69,944.41Z"
                  style="fill:#262c2d"/>
            <path d="M3851.75,949.42c16.05-.52,32.68-8.91,42-13.88s11.13-10.37,15.71-5.39-1.55,12.74-8,19.94-54.26,57.21-139.39,55c-65.71,0-110.89-29.51-110.89-101.18V614.73h-41.06v-27l41.06-12.65,129.78-126.47h30.39V575.1h86.24v39.63H3811.3v259.7C3811.3,922.49,3809.86,949.42,3851.75,949.42Z"
                  style="fill:#262c2d"/>
            <path d="M616.24,884.64c-15.29-.51-24,3.19-43.38,13.1A18.83,18.83,0,0,0,590,931.25c23.71-12.15,30.57-11.15,36.22-4.54,7,8.14,5,25.21-4.33,38l-1,1.4-.24.45-.21.08H553.34c-14.21-67.86-50.87-122.34-52.43-124.64a18.82,18.82,0,0,0-31.14,21.16c.34.51,34.69,51.57,47.09,113,3,14.72,15.33,26,30.75,28l1.12.15H624l1.48-.24c12.35-2,19.11-4.44,27.73-18.44,9.33-15.15,19.61-62.37,1.61-83.42C645.46,891.24,632.11,885.16,616.24,884.64Z"
                  style="fill:#262c2d"/>
            <path d="M374.91,533c48.32-13,128.15-2.61,184,6.3l.27,0c82.73,11.94,156.19-24.34,159.28-25.89A19.26,19.26,0,0,0,701.2,479c-.65.32-66,32.32-136.35,22.22-64.3-10.26-145.13-20.15-199.93-5.45-30.08,8.07-55.92,19.85-79,36-26.62,18.61-49,42.53-68.39,73.12-35,55.15-70.7,61.59-101.05,60.63-28.62-.91-64.9-24.49-78.87-67.8A19.27,19.27,0,1,0,.93,609.52a142.86,142.86,0,0,0,45.74,67.4c20.59,16.71,45,26.33,68.58,27.08,2.22.07,4.32.1,6.42.1,22.83,0,42.86-4.46,61.26-13.65,25.19-12.59,47.78-34.44,67.13-65C280.84,577,320.51,547.56,374.91,533Z"
                  style="fill:#262c2d"/>
            <path d="M854.9,884.92c0-.08,0-.16,0-.24-1.14-5.21-3.26-14.91-2.48-26.08,2.35-33.53,10.41-55.81,34.83-80.28,15.85-14.43,21.89-16.92,22-17s10.88-6.83,14.2-9.19c4.07-2.89,5.58-4.78,5.22-6.53a2.33,2.33,0,0,0-1.06-1.49c-1.26-.8-3.43-.78-6.84,0-4.3,1.05-19.72,4.53-29.28,8.76l-3.62,1.59c-24.8,10.9-45.42,25.56-57.49,47.4-8.93,16.17-14.09,34.82-15.34,55.43-2,33.17,3.58,48.56,7.27,58.75l.19.53c1.13,3.11,2.4,6.26,3.78,9.36a10.82,10.82,0,0,0,14.39,5.42l12.66-5.77c19.48-7.21,23.94-2.83,27.19.37l.13.12c5.15,5.06,4.65,22.73-4.18,41.21l-65.13-.55c-1.9-8.71-14.77-64.8-38-98-8-12.3-19.28-15.86-29.46-9.27a17.57,17.57,0,0,0-8.16,12.19,21.07,21.07,0,0,0,4.84,16.42c21.9,28.28,37.46,99.59,37.61,100.31l.1.3c3.72,8.11,16.11,15.78,25.49,15.78h77.44a42.46,42.46,0,0,0,14.44-3.19c4.17-1.7,9.47-4.62,11.1-8.92l.41-.68c9-14.93,12.16-26.34,13.17-33.29,4.32-29.49,1.13-47-10.64-58.61C893.83,884.24,875.43,879.25,854.9,884.92Zm-19.79-85.44.57-.86Zm.74-1.11a84.93,84.93,0,0,1,8.07-10.56A108.32,108.32,0,0,0,835.85,798.37Z"
                  style="fill:#262c2d"/>
            <path d="M1207.41,252.91a42.79,42.79,0,0,0-17-34.26l-91.29-69.52a11.83,11.83,0,0,1-3.09-4l-18.13-38.2a40.47,40.47,0,0,0-17.22-18.26c-17.25-9.46-26.07-14.72-30.51-17.52a187.66,187.66,0,0,0-2.38-19.36c-3.73-20.13-15.55-34.85-35.12-43.75-18.8-8.54-58.74-10.52-97.12-4.8C852.7,9.63,709,42.12,658.79,192.16l-.22.68-.21.81c-13,52.18-13.09,99.84-.25,141.65,10.2,33.26,28.58,63.59,56.17,92.73,44,46.47,86.15,77.8,138.29,115.74-17.76,11.7-24.89,30.74-21.78,58.12-11.35,11.18-32.29,27.79-57.69,41.5-25,13.48-48.81,9.57-81.78,4.16l-3.43-.56c-5.45-.89-10.61-2.11-16.06-3.41a213.69,213.69,0,0,0-31.45-5.64c-29.23-2.77-54.56-.79-75.61,5.83-23.48,6.75-41.92,18-57.33,27.41-7.14,4.37-13.89,8.49-20,11.42-18.7,9-40.55,15.53-58.43,17.46-22.11,2.39-38.19-1.63-47.77-11.93a20.23,20.23,0,1,0-29.62,27.56c15.5,16.66,38.33,25.47,66,25.47a147.2,147.2,0,0,0,15.73-.88c21.06-2.27,40.69-8.47,54.76-13.94-23,35.26-70.24,54.92-85.3,60.63-24.41,9.25-49.58,38.23-30.8,123.79.31,1.41.55,2.49.69,3.21.6,3.16,1.35,6.6,2.24,10.23a10.85,10.85,0,0,0,15.39,7.12c2.64-1.32,4.6-2.33,5.84-3l.47-.25c10.68-5.82,21.12-7.7,27.23-5.59,3.72,1.29,6.55,4.13,8.37,8.37,6.08,16.64-5.86,32.64-8.25,35.61-6.56,0-58.42.09-67.1,0-17.66-38-46.83-68.09-58.62-79.32l-.52-.5q-.52-.52-1-.93a11.67,11.67,0,0,1-1-1c.26-.41,1-1.47,1.71-2.59,4.12-6.2,13.77-20.71,17.51-29.94s5.83-18.72,7.1-24.44c.34-1.54.63-2.87.9-3.91,4.17-21.72-2.22-36.65-9.62-53.93-.75-1.76-1.52-3.54-2.28-5.37-1.94-4.59-4.05-9.15-6.28-14-5.11-11-10.38-22.38-13.73-34.85-.24-1.54-.56-3.26-.89-5.08-3.35-18.19-9.57-52.07,26.94-94.44,3.82-4.24,7.6-8.25,10.93-11.79,8.08-8.56,14.46-15.33,16.34-20.11,1.48-3.8,1.64-5,.75-5.78l-.84-.68-.89.47c-27,14.41-50.71,35.15-66.65,58.43-18.26,26.66-26,55.94-22.45,84.69,3,24.12,11.51,44.33,18.34,60.57,1.17,2.78,2.29,5.24,3.37,7.61,4.05,8.91,6.73,14.8,5.82,23.88v.13c-.26,19-21.45,52.94-28.42,60-7.69,7.72-8.77,14.88-3.33,21.89l.16.17c42.66,39.76,71,82.86,81.17,99.54a20.34,20.34,0,0,0,17.26,9.67h0l70.42,0c14.12,0,25.43-3.84,31-10.42,6-7.07,7.4-10,9.31-14a122.42,122.42,0,0,0,7.91-28.88c2.86-19.17.38-35.47-7.19-47.18-7.91-11.69-22.19-22.8-53.77-17-1.6-16.23-4.38-54.38,8.84-59.39,26.58-10.07,53.25-22.35,71.65-36.5a149.9,149.9,0,0,0,48.75-66c8.91-24.13,28.43-51,100.9-44.1a192.07,192.07,0,0,1,29,5.31c5.33,1.29,10.37,2.51,15.78,3.39l2.66.44c36.61,6,71.2,11.67,108.41-8.41s58.82-40,66.43-47.69c4.63-4.66,7.39-7.52,7.39-7.52L879,613.94l-.85-1a90.47,90.47,0,0,1-6.65-8.58,18.77,18.77,0,0,0-1.07-1.71,21.28,21.28,0,0,1-4-9.68c-.8-6,1.68-14.1,8-18.16,6.66-4.29,17.4-4.33,22.2-1.51,5.52,3.25,9,7.76,9.94,10,1.2,2.75,5.75,12,5.94,12.42l.36.74.83.06s5,.39,7,.62,8.17,1.55,8.25,1.56c4.08.81,17.86,4,23.86,11.57,3.75,4.72,6.49,10.42,9.4,16.45l0,.1C967.17,637,971,645,982.92,654.64l1.17.94c3.1,2.52,6,4.5,8.65,6.26,7.82,5.27,12.54,8.45,12.07,18.8-1.16,25.23-11,30.89-15.16,33.31l-.18.1c-3.79,2.19-12.66,7.73-13.66,8.35-.85.38-3.82,1.87-4,4.39-.12,1.55.81,2.94,2.69,4.11,3.16,2.23,9.31,5,16.09,7.17-3.16,17.29-9.07,58.5-2.56,100.66,3.61,23.39,10.3,45.22,19.33,63.14a116.85,116.85,0,0,0,8.63,15.26c4.54,6.45,10.79,12.75,13.94,14,2.76,1.13,7-.84,10.68-2.77l.84-.43c1.8-.89,6.93-2.87,7-2.89,13.38-5.25,22.07-5.52,26.53-.85,5.29,5.59,5.45,17,.51,33-2.31,6.15-3.36,8.58-3.81,9.51h-68.56c-13.93-86.53-65.27-139-67.46-141.15a19.26,19.26,0,0,0-27.3,27.18c.45.46,45.57,46.57,57,122.15,1.13,15.5,14,27.91,31.42,30.19l1.15.15h76.76l1.08-.12c8.87-1,21.64-4,30.13-18.71l.35-.65c17.2-32.7,16.09-69.27-2.7-88.93-8.42-8.81-19.7-13.9-32.62-14.73-8.72-.56-17.29.79-27.63,4.36-8.41-15.49-14-33-17.23-53.64-5.81-37.59.43-75.89,3.76-92.26a44.89,44.89,0,0,0,5-1,66.76,66.76,0,0,0,13-5.43c7.09-3.16,21.81-13.68,22-13.81,2-1.49,49.29-37.4,78.59-109.29,14.66-35.95,19.85-71.1,15.45-104.47-4.24-32.07-17.14-61.55-38.37-87.63-4.17-5.14-8.9-10.43-13.87-15.69,15.26-6.16,32.71-13.79,36.69-15.73,2.31-1.13,5.9-2.75,10.07-4.63,13.38-6,31.71-14.27,36.4-19.17,11.66-12.19,12.25-27.61,12.16-32Zm-40,80a6.56,6.56,0,0,1-1.18,3.52c-2.12,1.6-41,19.26-50.45,23.37-1.37.6-3.59,1.55-6.34,2.73-9.63,4.14-19.65,8.46-27.4,11.92-7.53-6.91-14.32-12.89-19.26-17.24-2.93-2.58-5.24-4.62-6.81-6l-.32-.3c-9.85-9-30.35-27.71-40.31-39.1-2.74-3.13-6.17-6.75-9.79-10.59-9.92-10.49-22.25-23.54-30.2-36.58A229.06,229.06,0,0,1,964.81,244c-6-12.62-11.09-23.53-16.28-25.27a4.55,4.55,0,0,0-3.65.27c-7.64,4-2.83,20.55,1.43,35.17.72,2.49,1.41,4.84,2,7,3.83,14.26,23.88,46.91,41.26,67.18s21.62,24.41,38.57,40.37c22,20.71,49.38,46.48,70.34,72.24,35.59,43.75,41.71,98,17.68,157-25.65,62.92-66.8,95.22-67.19,95.53s-1,.79-2,1.58l-1.7,1.35c-3.41,2.7-8.2,6.43-10.56,8-5.25,3.6-10,5.79-11.61,5.79h0a19.71,19.71,0,0,1,1.57-3.3c1.79-3.3,4.5-8.29,6.47-18.64,2.07-10.91-.27-24.35-6.77-38.87C1010.3,618,977.66,586,908,535.2q-12.44-9.09-24-17.51c-56.41-41-97.16-70.64-140.92-116.84-23.64-25-38.6-49.47-47.09-77.14-10.79-35.15-10.58-74.32.63-119.75C739.79,75.86,864.26,47.87,901.38,42.35c40.13-6,68.27-1.35,74.94,1.69,7.73,3.51,11.27,7.7,12.61,15a179.31,179.31,0,0,1,2.13,19c.13,1.8.26,3.46.39,4.93.64,7.24,14.65,16.19,29.48,25.67,8.74,5.59,17,10.87,20.91,14.94,9.91,10.37,18.33,38.1,18.41,38.38l.08.2A51.76,51.76,0,0,0,1074.47,180l92,70.11.13.09a3.12,3.12,0,0,1,1.23,2.47l-.49,78.57-.17.19Z"
                  style="fill:#262c2d"/>
        </g>
    </g>
</svg>